<?xml version="1.0" encoding="UTF-8" standalone="no"?>
<svg width="60px" height="60px" viewBox="0 0 60 60" version="1.1" xmlns="http://www.w3.org/2000/svg" xmlns:xlink="http://www.w3.org/1999/xlink" xmlns:sketch="http://www.bohemiancoding.com/sketch/ns">
    <!-- Generator: Sketch 3.3.3 (12081) - http://www.bohemiancoding.com/sketch -->
    <title>Malecancel</title>
    <desc>Created with Sketch.</desc>
    <defs></defs>
    <g id="outlined" stroke="none" stroke-width="1" fill="none" fill-rule="evenodd" sketch:type="MSPage">
        <g id="Interface_sliced" sketch:type="MSLayerGroup" transform="translate(0.000000, -1680.000000)"></g>
        <g id="Imported-Layers" sketch:type="MSLayerGroup" transform="translate(2.000000, -1676.000000)" fill="#535353">
            <path d="M28,1735 C12.561,1735 0,1722.439 0,1707 C0,1691.56 12.561,1679 28,1679 C28.552,1679 29,1679.447 29,1680 C29,1680.553 28.552,1681 28,1681 C13.664,1681 2,1692.663 2,1707 C2,1721.337 13.664,1733 28,1733 C42.336,1733 54,1721.337 54,1707 C54,1706.447 54.448,1706 55,1706 C55.552,1706 56,1706.447 56,1707 C56,1722.439 43.44,1735 28,1735" id="Fill-582" sketch:type="MSShapeGroup"></path>
            <path d="M28.059,1713 C22.6,1713 17.974,1708.922 17.224,1703.592 C15.914,1703.085 15,1701.806 15,1700.347 L15,1699.653 C15,1698.237 15.866,1696.985 17.118,1696.451 L17.118,1694.559 C17.118,1690.391 20.505,1687 24.669,1687 L38,1687 C38.552,1687 39,1687.447 39,1688 L39,1696.504 C40.196,1697.065 41,1698.283 41,1699.653 L41,1700.347 C41,1701.764 40.152,1703.008 38.901,1703.544 C38.173,1708.899 33.539,1713 28.059,1713 L28.059,1713 Z M24.669,1689 C21.608,1689 19.118,1691.493 19.118,1694.559 L19.118,1697.201 C19.118,1697.699 18.752,1698.121 18.258,1698.191 C17.529,1698.295 17,1698.909 17,1699.653 L17,1700.347 C17,1701.085 17.548,1701.714 18.276,1701.81 C18.746,1701.872 19.107,1702.256 19.142,1702.729 C19.483,1707.366 23.4,1711 28.059,1711 C32.727,1711 36.645,1707.359 36.977,1702.713 C37.01,1702.257 37.347,1701.881 37.797,1701.8 C38.494,1701.674 39,1701.063 39,1700.347 L39,1699.653 C39,1698.947 38.499,1698.338 37.809,1698.203 C37.339,1698.112 37,1697.7 37,1697.222 L37,1689 L24.669,1689 L24.669,1689 Z" id="Fill-583" sketch:type="MSShapeGroup"></path>
            <path d="M10,1728.113 C9.448,1728.113 9,1727.666 9,1727.113 L9,1722 C9,1718.624 11.93,1715.772 15.399,1715.772 L20.342,1715.772 L22.406,1711.56 C22.649,1711.065 23.248,1710.858 23.744,1711.102 C24.24,1711.345 24.445,1711.944 24.202,1712.44 L21.864,1717.213 C21.696,1717.556 21.348,1717.772 20.966,1717.772 L15.399,1717.772 C13.056,1717.772 11,1719.748 11,1722 L11,1727.113 C11,1727.666 10.552,1728.113 10,1728.113 L10,1728.113 Z M46,1728 C45.448,1728 45,1727.553 45,1727 L45,1721.887 C45,1719.618 43.133,1717.772 40.838,1717.772 L34.584,1717.772 C34.202,1717.772 33.853,1717.556 33.686,1717.213 L31.347,1712.44 C31.104,1711.944 31.309,1711.345 31.805,1711.102 C32.303,1710.857 32.899,1711.064 33.143,1711.56 L35.207,1715.772 L40.838,1715.772 C44.236,1715.772 47,1718.516 47,1721.887 L47,1727 C47,1727.553 46.552,1728 46,1728 L46,1728 Z" id="Fill-584" sketch:type="MSShapeGroup"></path>
            <path d="M46.464,1690.535 C46.209,1690.535 45.953,1690.438 45.757,1690.242 C45.367,1689.852 45.367,1689.219 45.757,1688.828 L52.829,1681.758 C53.219,1681.367 53.852,1681.367 54.243,1681.758 C54.633,1682.148 54.633,1682.781 54.243,1683.172 L47.171,1690.242 C46.976,1690.438 46.72,1690.535 46.464,1690.535" id="Fill-585" sketch:type="MSShapeGroup"></path>
            <path d="M53.889,1690.682 C53.633,1690.682 53.377,1690.584 53.182,1690.389 L46.111,1683.318 C45.72,1682.928 45.72,1682.295 46.111,1681.904 C46.502,1681.514 47.134,1681.514 47.525,1681.904 L54.596,1688.975 C54.987,1689.365 54.987,1689.998 54.596,1690.389 C54.401,1690.584 54.145,1690.682 53.889,1690.682" id="Fill-586" sketch:type="MSShapeGroup"></path>
        </g>
    </g>
</svg>