<?xml version="1.0" encoding="UTF-8" standalone="no"?>
<svg width="60px" height="60px" viewBox="0 0 60 60" version="1.1" xmlns="http://www.w3.org/2000/svg" xmlns:xlink="http://www.w3.org/1999/xlink" xmlns:sketch="http://www.bohemiancoding.com/sketch/ns">
    <!-- Generator: Sketch 3.3.3 (12081) - http://www.bohemiancoding.com/sketch -->
    <title>Malefav</title>
    <desc>Created with Sketch.</desc>
    <defs>
        <path id="path-1" d="M2.118,9.201 L2.118,6.558 C2.118,2.936 5.051,0 8.669,0 L22,0 L22,9.222 C23.139,9.443 24,10.453 24,11.653 L24,12.347 C24,13.563 23.133,14.575 21.974,14.784 C21.606,19.935 17.308,24 12.059,24 C6.817,24 2.523,19.936 2.145,14.802 C0.934,14.641 0,13.598 0,12.347 L0,11.653 C0,10.405 0.913,9.372 2.118,9.201 L2.118,9.201 Z"></path>
        <path id="path-3" d="M6,9 L2.473,10.854 L3.147,6.927 L0.294,4.146 L4.237,3.573 L6,0 L7.763,3.573 L11.706,4.146 L8.853,6.927 L9.527,10.854 L6,9 L6,9 Z"></path>
    </defs>
    <g id="outlined" stroke="none" stroke-width="1" fill="none" fill-rule="evenodd" sketch:type="MSPage">
        <g id="Interface_sliced" sketch:type="MSLayerGroup" transform="translate(0.000000, -1800.000000)">
            <g id="Imported-Layers" transform="translate(2.000000, 4.000000)">
                <path d="M28,1855 C12.56,1855 0,1842.439 0,1827 C0,1811.56 12.56,1799 28,1799 C28.552,1799 29,1799.447 29,1800 C29,1800.553 28.552,1801 28,1801 C13.664,1801 2,1812.663 2,1827 C2,1841.337 13.664,1853 28,1853 C42.336,1853 54,1841.337 54,1827 C54,1826.447 54.448,1826 55,1826 C55.552,1826 56,1826.447 56,1827 C56,1842.439 43.439,1855 28,1855" id="Fill-1425" fill="#314E55" sketch:type="MSShapeGroup"></path>
                <g id="Group-1428" transform="translate(16.000000, 1808.000000)">
                    <mask id="mask-2" sketch:name="Clip 1427" fill="white">
                        <use xlink:href="#path-1"></use>
                    </mask>
                    <g id="Clip-1427"></g>
                    <path d="M0,0 L24,0 L24,24 L0,24 L0,0 Z" id="Fill-1426" fill="#73C9C9" sketch:type="MSShapeGroup" mask="url(#mask-2)"></path>
                </g>
                <path d="M28.059,1833 C22.6,1833 17.974,1828.922 17.224,1823.592 C15.914,1823.085 15,1821.806 15,1820.347 L15,1819.653 C15,1818.237 15.866,1816.985 17.118,1816.451 L17.118,1814.559 C17.118,1810.391 20.505,1807 24.669,1807 L38,1807 C38.552,1807 39,1807.447 39,1808 L39,1816.504 C40.196,1817.065 41,1818.283 41,1819.653 L41,1820.347 C41,1821.764 40.152,1823.008 38.901,1823.544 C38.173,1828.899 33.539,1833 28.059,1833 L28.059,1833 Z M24.669,1809 C21.608,1809 19.118,1811.493 19.118,1814.559 L19.118,1817.201 C19.118,1817.699 18.751,1818.121 18.258,1818.191 C17.529,1818.295 17,1818.909 17,1819.653 L17,1820.347 C17,1821.085 17.548,1821.714 18.276,1821.81 C18.746,1821.872 19.107,1822.256 19.142,1822.728 C19.483,1827.366 23.4,1831 28.059,1831 C32.727,1831 36.645,1827.359 36.977,1822.713 C37.01,1822.257 37.347,1821.881 37.797,1821.8 C38.494,1821.674 39,1821.063 39,1820.347 L39,1819.653 C39,1818.947 38.499,1818.338 37.809,1818.203 C37.339,1818.112 37,1817.7 37,1817.222 L37,1809 L24.669,1809 L24.669,1809 Z" id="Fill-1429" fill="#314E55" sketch:type="MSShapeGroup"></path>
                <path d="M10,1848.113 C9.448,1848.113 9,1847.666 9,1847.113 L9,1842 C9,1838.624 11.93,1835.773 15.399,1835.773 L20.342,1835.773 L22.406,1831.56 C22.649,1831.065 23.248,1830.859 23.744,1831.102 C24.24,1831.345 24.445,1831.944 24.202,1832.44 L21.864,1837.213 C21.696,1837.556 21.348,1837.772 20.966,1837.772 L15.399,1837.772 C13.056,1837.772 11,1839.748 11,1842 L11,1847.113 C11,1847.666 10.552,1848.113 10,1848.113 L10,1848.113 Z M46,1848 C45.448,1848 45,1847.553 45,1847 L45,1841.887 C45,1839.618 43.133,1837.772 40.838,1837.772 L34.583,1837.772 C34.202,1837.772 33.853,1837.556 33.685,1837.213 L31.347,1832.44 C31.104,1831.944 31.309,1831.345 31.805,1831.102 C32.303,1830.858 32.899,1831.065 33.143,1831.56 L35.207,1835.773 L40.838,1835.773 C44.236,1835.773 47,1838.516 47,1841.887 L47,1847 C47,1847.553 46.552,1848 46,1848 L46,1848 Z" id="Fill-1430" fill="#314E55" sketch:type="MSShapeGroup"></path>
                <g id="Group-1433" transform="translate(43.000000, 1801.000000)">
                    <mask id="mask-4" sketch:name="Clip 1432" fill="white">
                        <use xlink:href="#path-3"></use>
                    </mask>
                    <g id="Clip-1432"></g>
                    <path d="M0.294,0 L11.707,0 L11.707,10.854 L0.294,10.854 L0.294,0 Z" id="Fill-1431" fill="#E4AD40" sketch:type="MSShapeGroup" mask="url(#mask-4)"></path>
                </g>
                <path d="M52.527,1812.854 C52.368,1812.854 52.208,1812.816 52.061,1812.739 L49,1811.13 L45.938,1812.739 C45.602,1812.918 45.194,1812.889 44.885,1812.663 C44.578,1812.439 44.423,1812.06 44.487,1811.685 L45.072,1808.276 L42.596,1805.861 C42.323,1805.596 42.225,1805.198 42.342,1804.836 C42.46,1804.475 42.773,1804.211 43.15,1804.156 L46.573,1803.659 L48.103,1800.558 C48.44,1799.874 49.56,1799.874 49.897,1800.558 L51.427,1803.659 L54.85,1804.156 C55.227,1804.211 55.54,1804.475 55.658,1804.836 C55.775,1805.198 55.677,1805.596 55.404,1805.861 L52.928,1808.276 L53.479,1811.493 C53.523,1811.604 53.547,1811.727 53.547,1811.854 C53.547,1812.407 53.099,1812.854 52.547,1812.854 L52.527,1812.854 L52.527,1812.854 Z M49,1809 C49.16,1809 49.32,1809.038 49.465,1809.115 L51.199,1810.026 L50.867,1808.096 C50.812,1807.771 50.919,1807.44 51.155,1807.211 L52.557,1805.844 L50.62,1805.562 C50.294,1805.516 50.012,1805.31 49.866,1805.016 L49,1803.26 L48.134,1805.016 C47.988,1805.31 47.706,1805.516 47.38,1805.562 L45.443,1805.844 L46.845,1807.211 C47.081,1807.44 47.188,1807.771 47.133,1808.096 L46.801,1810.026 L48.535,1809.115 C48.68,1809.038 48.84,1809 49,1809 L49,1809 Z" id="Fill-1434" fill="#314E55" sketch:type="MSShapeGroup"></path>
            </g>
        </g>
    </g>
</svg>