<?xml version="1.0" encoding="UTF-8" standalone="no"?>
<svg width="60px" height="60px" viewBox="0 0 60 60" version="1.1" xmlns="http://www.w3.org/2000/svg" xmlns:xlink="http://www.w3.org/1999/xlink" xmlns:sketch="http://www.bohemiancoding.com/sketch/ns">
    <!-- Generator: Sketch 3.3.3 (12081) - http://www.bohemiancoding.com/sketch -->
    <title>Femalecancel</title>
    <desc>Created with Sketch.</desc>
    <defs>
        <path id="path-1" d="M2.156,10.182 C2.156,14.303 0,22.545 0,22.545 C0,22.545 5.031,24 11.5,24 C17.969,24 23,22.545 23,22.545 C23,22.545 20.844,14.303 20.844,10.182 L20.844,7.858 C20.844,3.518 17.329,0 12.986,0 L10.014,0 C5.674,0 2.156,3.526 2.156,7.858 L2.156,10.182 L2.156,10.182 Z"></path>
    </defs>
    <g id="outlined" stroke="none" stroke-width="1" fill="none" fill-rule="evenodd" sketch:type="MSPage">
        <g id="Interface_sliced" sketch:type="MSLayerGroup" transform="translate(-120.000000, -1680.000000)">
            <g id="Imported-Layers" transform="translate(2.000000, 4.000000)">
                <path d="M148,1735 C132.56,1735 120,1722.439 120,1707 C120,1691.56 132.56,1679 148,1679 C148.552,1679 149,1679.447 149,1680 C149,1680.553 148.552,1681 148,1681 C133.664,1681 122,1692.663 122,1707 C122,1721.337 133.664,1733 148,1733 C162.336,1733 174,1721.337 174,1707 C174,1706.447 174.448,1706 175,1706 C175.552,1706 176,1706.447 176,1707 C176,1722.439 163.44,1735 148,1735" id="Fill-1120" fill="#535353" sketch:type="MSShapeGroup"></path>
                <path d="M164,1729.5 C163.448,1729.5 163,1729.053 163,1728.5 L163,1723.227 C163,1721.147 161.174,1719.455 158.931,1719.455 L153.568,1719.455 C153.181,1719.455 152.829,1719.231 152.664,1718.881 L150.095,1713.426 C149.86,1712.927 150.074,1712.33 150.574,1712.096 C151.072,1711.859 151.669,1712.074 151.905,1712.574 L154.203,1717.455 L158.931,1717.455 C162.277,1717.455 165,1720.045 165,1723.227 L165,1728.5 C165,1729.053 164.552,1729.5 164,1729.5 L164,1729.5 Z M132,1729.5 C131.448,1729.5 131,1729.053 131,1728.5 L131,1723.227 C131,1720.045 133.723,1717.455 137.069,1717.455 L141.086,1717.455 L143.075,1712.619 C143.285,1712.109 143.869,1711.867 144.38,1712.075 C144.891,1712.285 145.135,1712.87 144.925,1713.381 L142.681,1718.836 C142.526,1719.21 142.161,1719.455 141.756,1719.455 L137.069,1719.455 C134.826,1719.455 133,1721.147 133,1723.227 L133,1728.5 C133,1729.053 132.552,1729.5 132,1729.5 L132,1729.5 Z" id="Fill-1121" fill="#535353" sketch:type="MSShapeGroup"></path>
                <g id="Group-1124" transform="translate(136.000000, 1689.000000)">
                    <mask id="mask-2" sketch:name="Clip 1123" fill="white">
                        <use xlink:href="#path-1"></use>
                    </mask>
                    <g id="Clip-1123"></g>
                    <path d="M0,0 L23,0 L23,24 L0,24 L0,0 Z" id="Fill-1122" fill="#D8D8D8" sketch:type="MSShapeGroup" mask="url(#mask-2)"></path>
                </g>
                <path d="M147.5,1714 C140.965,1714 135.933,1712.567 135.722,1712.507 C135.201,1712.356 134.895,1711.817 135.033,1711.293 C135.054,1711.212 137.156,1703.126 137.156,1699.182 L137.156,1696.857 C137.156,1691.974 141.13,1688 146.014,1688 L148.986,1688 C153.87,1688 157.844,1691.974 157.844,1696.857 L157.844,1699.182 C157.844,1703.129 159.946,1711.212 159.967,1711.293 C160.104,1711.817 159.799,1712.356 159.278,1712.507 C159.067,1712.567 154.035,1714 147.5,1714 L147.5,1714 Z M137.214,1710.821 C138.936,1711.225 142.858,1712 147.5,1712 C152.142,1712 156.063,1711.225 157.786,1710.821 C157.211,1708.486 155.844,1702.572 155.844,1699.182 L155.844,1696.857 C155.844,1693.076 152.768,1690 148.986,1690 L146.014,1690 C142.232,1690 139.156,1693.076 139.156,1696.857 L139.156,1699.182 C139.156,1702.572 137.789,1708.486 137.214,1710.821 L137.214,1710.821 Z" id="Fill-1125" fill="#535353" sketch:type="MSShapeGroup"></path>
                <path d="M166.464,1690.535 C166.208,1690.535 165.953,1690.437 165.757,1690.242 C165.367,1689.852 165.367,1689.219 165.757,1688.828 L172.829,1681.758 C173.219,1681.367 173.852,1681.367 174.243,1681.758 C174.633,1682.148 174.633,1682.781 174.243,1683.172 L167.171,1690.242 C166.976,1690.437 166.72,1690.535 166.464,1690.535" id="Fill-1126" fill="#535353" sketch:type="MSShapeGroup"></path>
                <path d="M173.889,1690.682 C173.633,1690.682 173.377,1690.584 173.182,1690.389 L166.111,1683.318 C165.72,1682.928 165.72,1682.295 166.111,1681.904 C166.501,1681.514 167.134,1681.514 167.525,1681.904 L174.596,1688.975 C174.987,1689.365 174.987,1689.998 174.596,1690.389 C174.401,1690.584 174.145,1690.682 173.889,1690.682" id="Fill-1127" fill="#535353" sketch:type="MSShapeGroup"></path>
            </g>
        </g>
    </g>
</svg>