<?xml version="1.0" encoding="UTF-8" standalone="no"?>
<svg width="60px" height="60px" viewBox="0 0 60 60" version="1.1" xmlns="http://www.w3.org/2000/svg" xmlns:xlink="http://www.w3.org/1999/xlink" xmlns:sketch="http://www.bohemiancoding.com/sketch/ns">
    <!-- Generator: Sketch 3.3.3 (12081) - http://www.bohemiancoding.com/sketch -->
    <title>Femalefav</title>
    <desc>Created with Sketch.</desc>
    <defs>
        <path id="path-1" d="M2.156,10.182 C2.156,14.303 0,22.545 0,22.545 C0,22.545 5.031,24 11.5,24 C17.969,24 23,22.545 23,22.545 C23,22.545 20.844,14.303 20.844,10.182 L20.844,7.858 C20.844,3.518 17.329,0 12.986,0 L10.014,0 C5.674,0 2.156,3.526 2.156,7.858 L2.156,10.182 L2.156,10.182 Z"></path>
    </defs>
    <g id="outlined" stroke="none" stroke-width="1" fill="none" fill-rule="evenodd" sketch:type="MSPage">
        <g id="Interface_sliced" sketch:type="MSLayerGroup" transform="translate(-120.000000, -1800.000000)">
            <g id="Imported-Layers" transform="translate(2.000000, 4.000000)">
                <path d="M148,1855 C132.56,1855 120,1842.439 120,1827 C120,1811.56 132.56,1799 148,1799 C148.552,1799 149,1799.447 149,1800 C149,1800.553 148.552,1801 148,1801 C133.664,1801 122,1812.663 122,1827 C122,1841.337 133.664,1853 148,1853 C162.336,1853 174,1841.337 174,1827 C174,1826.447 174.448,1826 175,1826 C175.552,1826 176,1826.447 176,1827 C176,1842.439 163.44,1855 148,1855" id="Fill-1181" fill="#535353" sketch:type="MSShapeGroup"></path>
                <path d="M164,1849.5 C163.448,1849.5 163,1849.053 163,1848.5 L163,1843.227 C163,1841.147 161.174,1839.455 158.931,1839.455 L153.568,1839.455 C153.181,1839.455 152.829,1839.231 152.664,1838.881 L150.095,1833.426 C149.86,1832.927 150.074,1832.33 150.574,1832.096 C151.072,1831.858 151.669,1832.073 151.905,1832.574 L154.203,1837.455 L158.931,1837.455 C162.277,1837.455 165,1840.045 165,1843.227 L165,1848.5 C165,1849.053 164.552,1849.5 164,1849.5 L164,1849.5 Z M132,1849.5 C131.448,1849.5 131,1849.053 131,1848.5 L131,1843.227 C131,1840.045 133.723,1837.455 137.069,1837.455 L141.086,1837.455 L143.075,1832.619 C143.285,1832.11 143.869,1831.867 144.38,1832.075 C144.891,1832.285 145.135,1832.87 144.925,1833.381 L142.681,1838.836 C142.526,1839.21 142.161,1839.455 141.756,1839.455 L137.069,1839.455 C134.826,1839.455 133,1841.147 133,1843.227 L133,1848.5 C133,1849.053 132.552,1849.5 132,1849.5 L132,1849.5 Z" id="Fill-1182" fill="#535353" sketch:type="MSShapeGroup"></path>
                <g id="Group-1185" transform="translate(136.000000, 1809.000000)">
                    <mask id="mask-2" sketch:name="Clip 1184" fill="white">
                        <use xlink:href="#path-1"></use>
                    </mask>
                    <g id="Clip-1184"></g>
                    <path d="M0,0 L23,0 L23,24 L0,24 L0,0 Z" id="Fill-1183" fill="#D8D8D8" sketch:type="MSShapeGroup" mask="url(#mask-2)"></path>
                </g>
                <path d="M147.5,1834 C140.965,1834 135.933,1832.567 135.722,1832.507 C135.201,1832.356 134.895,1831.817 135.033,1831.293 C135.054,1831.212 137.156,1823.126 137.156,1819.182 L137.156,1816.857 C137.156,1811.974 141.13,1808 146.014,1808 L148.986,1808 C153.87,1808 157.844,1811.974 157.844,1816.857 L157.844,1819.182 C157.844,1823.129 159.946,1831.212 159.967,1831.293 C160.104,1831.817 159.799,1832.356 159.278,1832.507 C159.067,1832.567 154.035,1834 147.5,1834 L147.5,1834 Z M137.214,1830.821 C138.936,1831.225 142.858,1832 147.5,1832 C152.142,1832 156.063,1831.225 157.786,1830.821 C157.211,1828.486 155.844,1822.572 155.844,1819.182 L155.844,1816.857 C155.844,1813.076 152.768,1810 148.986,1810 L146.014,1810 C142.232,1810 139.156,1813.076 139.156,1816.857 L139.156,1819.182 C139.156,1822.572 137.789,1828.486 137.214,1830.821 L137.214,1830.821 Z" id="Fill-1186" fill="#535353" sketch:type="MSShapeGroup"></path>
                <path d="M172.527,1812.854 C172.368,1812.854 172.208,1812.816 172.061,1812.739 L169,1811.13 L165.938,1812.739 C165.602,1812.918 165.194,1812.889 164.885,1812.663 C164.578,1812.439 164.423,1812.06 164.487,1811.685 L165.072,1808.276 L162.596,1805.861 C162.323,1805.596 162.225,1805.198 162.342,1804.836 C162.46,1804.475 162.773,1804.211 163.15,1804.156 L166.573,1803.659 L168.103,1800.558 C168.44,1799.874 169.56,1799.874 169.897,1800.558 L171.427,1803.659 L174.85,1804.156 C175.227,1804.211 175.54,1804.475 175.658,1804.836 C175.775,1805.198 175.677,1805.596 175.404,1805.861 L172.928,1808.276 L173.479,1811.493 C173.523,1811.604 173.547,1811.727 173.547,1811.854 C173.547,1812.407 173.099,1812.854 172.547,1812.854 L172.527,1812.854 L172.527,1812.854 Z M169,1809 C169.16,1809 169.32,1809.038 169.465,1809.115 L171.199,1810.026 L170.867,1808.096 C170.812,1807.771 170.919,1807.44 171.155,1807.211 L172.557,1805.844 L170.62,1805.562 C170.294,1805.516 170.012,1805.31 169.866,1805.016 L169,1803.26 L168.134,1805.016 C167.988,1805.31 167.706,1805.516 167.38,1805.562 L165.443,1805.844 L166.845,1807.211 C167.081,1807.44 167.188,1807.771 167.133,1808.096 L166.801,1810.026 L168.535,1809.115 C168.68,1809.038 168.84,1809 169,1809 L169,1809 Z" id="Fill-1187" fill="#535353" sketch:type="MSShapeGroup"></path>
            </g>
        </g>
    </g>
</svg>