<?xml version="1.0" encoding="UTF-8"?>
<!DOCTYPE svg PUBLIC "-//W3C//DTD SVG 1.1//EN" "http://www.w3.org/Graphics/SVG/1.1/DTD/svg11.dtd">
<!-- Creator: CorelDRAW X6 -->
<svg xmlns="http://www.w3.org/2000/svg" xml:space="preserve" width="2.77778in" height="2.77778in" version="1.1" style="shape-rendering:geometricPrecision; text-rendering:geometricPrecision; image-rendering:optimizeQuality; fill-rule:evenodd; clip-rule:evenodd"
viewBox="0 0 2778 2778"
 xmlns:xlink="http://www.w3.org/1999/xlink">
 <defs>
  <style type="text/css">
   <![CDATA[
    .str0 {stroke:#F6A60F;stroke-width:3.47244}
    .str2 {stroke:#646464;stroke-width:6.94488}
    .str1 {stroke:#D8D8D8;stroke-width:6.94488}
    .fil1 {fill:none;fill-rule:nonzero}
    .fil3 {fill:#F0F0F0;fill-rule:nonzero}
    .fil2 {fill:#FAFAFA;fill-rule:nonzero}
    .fil0 {fill:#FFCE54;fill-rule:nonzero}
   ]]>
  </style>
 </defs>
 <g id="Layer_x0020_1">
  <metadata id="CorelCorpID_0Corel-Layer"/>
  <polygon class="fil0" points="2,264 2776,264 2776,2 2,2 "/>
  <polygon class="fil1 str0" points="2,264 2776,264 2776,2 2,2 "/>
  <path class="fil2" d="M510 188c31,0 56,-25 56,-56 0,-31 -25,-56 -56,-56 -31,0 -56,25 -56,56 0,31 25,56 56,56z"/>
  <path class="fil1 str1" d="M510 188c31,0 56,-25 56,-56 0,-31 -25,-56 -56,-56 -31,0 -56,25 -56,56 0,31 25,56 56,56z"/>
  <path class="fil2" d="M333 188c31,0 56,-25 56,-56 0,-31 -25,-56 -56,-56 -31,0 -56,25 -56,56 0,31 25,56 56,56z"/>
  <path class="fil1 str1" d="M333 188c31,0 56,-25 56,-56 0,-31 -25,-56 -56,-56 -31,0 -56,25 -56,56 0,31 25,56 56,56z"/>
  <path class="fil2" d="M156 188c31,0 56,-25 56,-56 0,-31 -25,-56 -56,-56 -31,0 -56,25 -56,56 0,31 25,56 56,56z"/>
  <path class="fil1 str1" d="M156 188c31,0 56,-25 56,-56 0,-31 -25,-56 -56,-56 -31,0 -56,25 -56,56 0,31 25,56 56,56z"/>
  <path class="fil1 str2" d="M1374 2376c501,0 907,-403 907,-899 0,-497 -406,-899 -907,-899 -501,0 -907,403 -907,899 0,497 406,899 907,899z"/>
  <path class="fil1 str2" d="M1374 2069c330,0 597,-265 597,-592 0,-327 -267,-592 -597,-592 -330,0 -597,265 -597,592 0,327 267,592 597,592z"/>
  <path class="fil3" d="M1104 2470c79,0 143,-64 143,-143 0,-79 -64,-143 -143,-143 -79,0 -143,64 -143,143 0,79 64,143 143,143z"/>
  <path class="fil1 str1" d="M1104 2470c79,0 143,-64 143,-143 0,-79 -64,-143 -143,-143 -79,0 -143,64 -143,143 0,79 64,143 143,143z"/>
  <path class="fil3" d="M2154 1274c135,0 245,-104 245,-232 0,-128 -110,-232 -245,-232 -135,0 -245,104 -245,232 0,128 110,232 245,232z"/>
  <path class="fil1 str1" d="M2154 1274c135,0 245,-104 245,-232 0,-128 -110,-232 -245,-232 -135,0 -245,104 -245,232 0,128 110,232 245,232z"/>
  <path class="fil1 str2" d="M1374 2069c330,0 597,-265 597,-592 0,-327 -267,-592 -597,-592 -330,0 -597,265 -597,592 0,327 267,592 597,592z"/>
  <path class="fil3" d="M1575 2171c79,0 143,-64 143,-143 0,-79 -64,-142 -143,-142 -79,0 -143,64 -143,142 0,79 64,143 143,143z"/>
  <path class="fil1 str1" d="M1575 2171c79,0 143,-64 143,-143 0,-79 -64,-142 -143,-142 -79,0 -143,64 -143,142 0,79 64,143 143,143z"/>
  <path class="fil3" d="M521 1314c79,0 143,-64 143,-143 0,-79 -64,-143 -143,-143 -79,0 -143,64 -143,143 0,79 64,143 143,143z"/>
  <path class="fil1 str1" d="M521 1314c79,0 143,-64 143,-143 0,-79 -64,-143 -143,-143 -79,0 -143,64 -143,143 0,79 64,143 143,143z"/>
  <path class="fil3" d="M1499 1033c79,0 143,-64 143,-143 0,-79 -64,-143 -143,-143 -79,0 -143,64 -143,143 0,79 64,143 143,143z"/>
  <path class="fil1 str1" d="M1499 1033c79,0 143,-64 143,-143 0,-79 -64,-143 -143,-143 -79,0 -143,64 -143,143 0,79 64,143 143,143z"/>
  <path class="fil3" d="M1949 1674c59,0 107,-48 107,-107 0,-59 -48,-107 -107,-107 -59,0 -107,48 -107,107 0,59 48,107 107,107z"/>
  <path class="fil1 str1" d="M1949 1674c59,0 107,-48 107,-107 0,-59 -48,-107 -107,-107 -59,0 -107,48 -107,107 0,59 48,107 107,107z"/>
  <path class="fil3" d="M858 1974c116,0 209,-94 209,-209 0,-116 -94,-209 -209,-209 -116,0 -209,94 -209,209 0,116 94,209 209,209z"/>
  <path class="fil1 str1" d="M858 1974c116,0 209,-94 209,-209 0,-116 -94,-209 -209,-209 -116,0 -209,94 -209,209 0,116 94,209 209,209z"/>
  <path class="fil0" d="M2274 1150c0,-3 1,-6 1,-9 0,-63 -36,-115 -84,-131 15,-11 26,-28 26,-48 0,-33 -27,-60 -60,-60 -33,0 -60,27 -60,60 0,21 12,39 28,50 -46,18 -79,69 -79,130 0,3 1,6 1,9l229 0z"/>
  <path class="fil0" d="M1444 1534c0,-2 0,-4 0,-6 0,-39 -22,-71 -52,-81 9,-7 16,-17 16,-30 0,-21 -17,-37 -37,-37 -21,0 -37,17 -37,37 0,13 7,24 17,31 -28,11 -49,43 -49,80 0,2 0,4 0,6l142 0z"/>
  <path class="fil0" d="M1634 2084c0,-2 0,-3 0,-5 0,-32 -18,-59 -43,-67 8,-6 13,-14 13,-24 0,-17 -14,-31 -31,-31 -17,0 -31,14 -31,31 0,11 6,20 14,25 -24,9 -41,35 -41,66 0,2 0,3 0,5l117 0z"/>
  <path class="fil0" d="M580 1227c0,-2 0,-3 0,-5 0,-32 -18,-59 -43,-67 8,-6 13,-14 13,-24 0,-17 -14,-31 -31,-31 -17,0 -31,14 -31,31 0,11 6,20 14,25 -24,9 -41,35 -41,66 0,2 0,3 0,5l117 0z"/>
  <path class="fil0" d="M958 1870c0,-3 1,-5 1,-8 0,-53 -30,-98 -72,-112 13,-9 22,-24 22,-41 0,-28 -23,-51 -51,-51 -28,0 -51,23 -51,51 0,18 10,33 24,42 -39,15 -67,58 -67,110 0,3 1,5 1,8l194 0z"/>
  <path class="fil0" d="M1163 2379c0,-2 0,-3 0,-5 0,-32 -18,-59 -43,-67 8,-6 13,-14 13,-24 0,-17 -14,-31 -31,-31 -17,0 -31,14 -31,31 0,11 6,20 14,25 -24,9 -41,35 -41,66 0,2 0,3 0,5l117 0z"/>
  <path class="fil0" d="M1557 958c0,-2 0,-3 0,-5 0,-32 -18,-59 -43,-67 8,-6 13,-14 13,-24 0,-17 -14,-31 -31,-31 -17,0 -31,14 -31,31 0,11 6,20 14,25 -24,9 -41,35 -41,66 0,2 0,3 0,5l117 0z"/>
  <path class="fil0" d="M1993 1614c0,-1 0,-2 0,-3 0,-24 -14,-44 -32,-50 6,-4 10,-11 10,-18 0,-13 -10,-23 -23,-23 -13,0 -23,10 -23,23 0,8 4,15 11,19 -17,7 -30,26 -30,49 0,1 0,2 0,3l86 0z"/>
 </g>
</svg>
