<svg x="0" y="0" width="300" height="300" version="1.1" xmlns="http://www.w3.org/2000/svg" xmlns:xlink="http://www.w3.org/1999/xlink"><defs><linearGradient x1="30" y1="119.99219" x2="30" y2="180.00781" gradientUnits="userSpaceOnUse" id="color-1"><stop offset="0" stop-color="#3e4946"></stop><stop offset="1" stop-color="#3e4649"></stop></linearGradient></defs><g data-paper-data="{&quot;description&quot;:&quot;Logo for lunchedin\n==================\n\nThis logo was generated by MarkMaker and is composed of elements designed by others.\n\nThe font is Pacifico Regular designed by Vernon Adams and released under the OFL license via Google Fonts: https://www.google.com/fonts/specimen/Pacifico. The font includes this copyright statement: Copyright (c) 2011 by Vernon Adams (vern@newtypography.co.uk) with Reserved Font Name 'Pacifico'. All rights reserved.\n\nMarkMaker uses semantic data from the Princeton University WordNet database http://wordnet.princeton.edu and font descriptions from Google Fonts https://www.google.com/fonts.\n\nThis design is inspired by designs that past users of MarkMaker have liked. As a result, it may be visually similar to past or future designs generated by the system. There is no guarantee that it is unique, original, or suitable in any way for use as a logo.\n\n&quot;}" fill="url(#color-1)" stroke="none" stroke-width="1" stroke-linecap="butt" stroke-linejoin="miter" stroke-miterlimit="10" stroke-dasharray="" stroke-dashoffset="0" font-family="sans-serif" font-weight="normal" font-size="12" text-anchor="start" mix-blend-mode="normal"><g data-paper-data="{&quot;elementType&quot;:&quot;logo&quot;}"><g data-paper-data="{&quot;elementType&quot;:&quot;text&quot;}"><g data-paper-data="{&quot;baseline&quot;:93.75,&quot;elementType&quot;:&quot;row&quot;}"><g data-paper-data="{&quot;baselineProportion&quot;:0.9989594172736732,&quot;fontSize&quot;:100,&quot;baseline&quot;:93.75,&quot;elementType&quot;:&quot;word&quot;}"><path d="M37.96253,179.94536c-1.12412,0 -2.17018,-0.49441 -3.13817,-1.48322c-0.96799,-0.98881 -1.81109,-2.3159 -2.52927,-3.98126c-0.71819,-1.66537 -1.28025,-3.59615 -1.68618,-5.79235c-0.40593,-2.1962 -0.6089,-4.50169 -0.6089,-6.91647c0,-1.85272 0.13531,-3.86677 0.40593,-6.04215c0.27062,-2.17538 0.66615,-4.41842 1.18657,-6.72912c0.52043,-2.31069 1.13973,-4.6318 1.85792,-6.96331c0.71819,-2.33151 1.53005,-4.56935 2.4356,-6.71351c0.90554,-2.14416 1.88915,-4.1478 2.95082,-6.01093c1.06167,-1.86313 2.17538,-3.48686 3.34114,-4.87119c1.16576,-1.38434 2.38355,-2.47203 3.6534,-3.26308c1.26984,-0.79105 2.5605,-1.18657 3.87198,-1.18657c0.89513,0 1.63414,0.20297 2.21702,0.6089c0.58288,0.40593 1.04085,0.94197 1.37393,1.60812c0.33307,0.66615 0.56727,1.42077 0.70258,2.26386c0.13531,0.84309 0.20297,1.7018 0.20297,2.57611c0,1.9568 -0.22378,3.95004 -0.67135,5.9797c-0.44757,2.02966 -1.05126,4.06974 -1.81109,6.12022c-0.75982,2.05048 -1.63934,4.10617 -2.63856,6.16706c-0.99922,2.06089 -2.04007,4.10617 -3.12256,6.13583c-1.08249,2.02966 -2.17018,4.0281 -3.26308,5.99532c-1.0929,1.96721 -2.11814,3.88759 -3.07572,5.76112c-0.10409,0.20817 -0.21337,0.47879 -0.32787,0.81187c-0.11449,0.33307 -0.22378,0.69217 -0.32787,1.07728c-0.10409,0.38512 -0.20817,0.79625 -0.31226,1.23341c-0.10409,0.43716 -0.18735,0.86391 -0.2498,1.28025l0,0.43716c0,0.54124 0.05725,1.06687 0.17174,1.57689c0.11449,0.51002 0.25501,0.96799 0.42155,1.37393c0.16654,0.40593 0.34348,0.7286 0.53084,0.96799c0.18735,0.2394 0.3643,0.35909 0.53084,0.35909c0.39552,0 0.8483,-0.08327 1.35831,-0.2498c0.51002,-0.16654 1.05126,-0.39032 1.62373,-0.67135c0.57247,-0.28103 1.16055,-0.6037 1.76425,-0.96799c0.6037,-0.3643 1.18657,-0.7338 1.74863,-1.10851c1.31148,-0.87432 2.6854,-1.88394 4.12178,-3.02888l2.5605,6.55738c-1.85272,1.33229 -3.68462,2.51887 -5.49571,3.55972c-0.79105,0.43716 -1.60812,0.86911 -2.45121,1.29586c-0.84309,0.42675 -1.69139,0.80666 -2.54489,1.13973c-0.8535,0.33307 -1.68618,0.59849 -2.49805,0.79625c-0.81187,0.19776 -1.57169,0.29664 -2.27947,0.29664 M37.99375,154.96487c0.93677,-1.66537 1.93078,-3.5389 2.98205,-5.62061c1.05126,-2.08171 2.04528,-4.22587 2.98205,-6.43247c0.93677,-2.20661 1.74863,-4.40801 2.4356,-6.60422c0.68696,-2.1962 1.12412,-4.24148 1.31148,-6.13583c0,-0.6037 -0.01561,-1.11892 -0.04684,-1.54567c-0.03123,-0.42675 -0.13011,-0.64012 -0.29664,-0.64012c-0.6037,0 -1.25423,0.39032 -1.9516,1.17096c-0.69737,0.78064 -1.39474,1.83711 -2.09212,3.1694c-0.69737,1.33229 -1.36352,2.88316 -1.99844,4.65262c-0.63492,1.76945 -1.20219,3.6534 -1.7018,5.65183c-0.49961,1.99844 -0.89513,4.05412 -1.18657,6.16706c-0.29144,2.11293 -0.43716,4.16862 -0.43716,6.16706z" data-paper-data="{&quot;elementType&quot;:&quot;letter&quot;,&quot;baseline&quot;:93.75,&quot;baselineProportion&quot;:1,&quot;fontSize&quot;:100}"></path><path d="M72.31069,151.99844c0,0.56206 -0.06245,1.32709 -0.18735,2.29508c-0.1249,0.96799 -0.28623,2.02966 -0.484,3.18501c-0.19776,1.15535 -0.41114,2.34712 -0.64012,3.57533c-0.22899,1.22821 -0.44236,2.37315 -0.64012,3.43482c-0.19776,1.06167 -0.35909,1.99323 -0.484,2.79469c-0.1249,0.80146 -0.18735,1.35831 -0.18735,1.67057c0,0.58288 0.01041,1.11892 0.03123,1.60812c0.02082,0.4892 0.08327,0.91595 0.18735,1.28025c0.10409,0.3643 0.26542,0.64533 0.484,0.84309c0.21858,0.19776 0.53604,0.29664 0.95238,0.29664c0.45798,0 1.01483,-0.11449 1.67057,-0.34348c0.65574,-0.22899 1.35311,-0.53604 2.09212,-0.92116c0.73901,-0.38512 1.49362,-0.82227 2.26386,-1.31148c0.77023,-0.4892 1.50403,-1.00442 2.20141,-1.54567c0.69737,-0.54124 1.33229,-1.07728 1.90476,-1.60812c0.57247,-0.53084 1.03565,-1.02524 1.38954,-1.48322c0,0.68696 0.0052,1.31148 0.01561,1.87354c0.01041,0.56206 0.01561,1.0981 0.01561,1.60812c0,0.51002 0.0052,1.03565 0.01561,1.57689c0.01041,0.54124 0.01561,1.14494 0.01561,1.81109c-0.45798,0.45798 -1.02524,0.94718 -1.7018,1.4676c-0.67655,0.52043 -1.42597,1.04085 -2.24824,1.56128c-0.82227,0.52043 -1.69659,1.02004 -2.62295,1.49883c-0.92636,0.47879 -1.85792,0.90034 -2.79469,1.26464c-0.93677,0.3643 -1.86313,0.65574 -2.77908,0.87432c-0.91595,0.21858 -1.76945,0.32787 -2.5605,0.32787c-0.79105,0 -1.4676,-0.15613 -2.02966,-0.46838c-0.56206,-0.31226 -1.04606,-0.74941 -1.45199,-1.31148c-0.40593,-0.56206 -0.74941,-1.23341 -1.03044,-2.01405c-0.28103,-0.78064 -0.52563,-1.64975 -0.7338,-2.60734c-0.74941,0.9784 -1.54046,1.87874 -2.37315,2.70101c-0.83268,0.82227 -1.68098,1.53526 -2.54489,2.13895c-0.86391,0.6037 -1.73823,1.07728 -2.62295,1.42077c-0.88473,0.34348 -1.74343,0.51522 -2.57611,0.51522c-0.68696,0 -1.33229,-0.11449 -1.93599,-0.34348c-0.6037,-0.22899 -1.13973,-0.6141 -1.60812,-1.15535c-0.46838,-0.54124 -0.83789,-1.25423 -1.10851,-2.13895c-0.27062,-0.88473 -0.40593,-1.98283 -0.40593,-3.2943c0,-1.60291 0.19256,-3.64299 0.57767,-6.12022c0.38512,-2.47723 0.8587,-5.30835 1.42077,-8.49336c0.04163,-0.31226 0.1197,-0.7338 0.23419,-1.26464c0.11449,-0.53084 0.27062,-1.10851 0.46838,-1.73302c0.19776,-0.62451 0.44236,-1.25943 0.7338,-1.90476c0.29144,-0.64533 0.63492,-1.22821 1.03044,-1.74863c0.39552,-0.52043 0.8587,-0.94718 1.38954,-1.28025c0.53084,-0.33307 1.12933,-0.51002 1.79547,-0.53084c1.1033,0.04163 1.89435,0.18215 2.37315,0.42155c0.47879,0.2394 0.71819,0.53604 0.71819,0.88993c-0.18735,1.1033 -0.39032,2.33151 -0.6089,3.68462c-0.21858,1.35311 -0.44236,2.71663 -0.67135,4.09055c-0.22899,1.37393 -0.44757,2.71142 -0.65574,4.01249c-0.20817,1.30107 -0.39552,2.46162 -0.56206,3.48165c-0.16654,1.02004 -0.29664,1.84231 -0.39032,2.46682c-0.09368,0.62451 -0.14052,0.94718 -0.14052,0.96799c0,0.37471 0.03643,0.7338 0.10929,1.07728c0.07286,0.34348 0.18215,0.65053 0.32787,0.92116c0.14572,0.27062 0.33307,0.4892 0.56206,0.65574c0.22899,0.16654 0.49961,0.2498 0.81187,0.2498c0.45798,0 0.92636,-0.1197 1.40515,-0.35909c0.47879,-0.2394 0.93156,-0.58288 1.35831,-1.03044c0.42675,-0.44757 0.80666,-0.99922 1.13973,-1.65496c0.33307,-0.65574 0.58288,-1.39995 0.74941,-2.23263l3.09133,-15.86261c0.10409,-0.49961 0.52563,-0.92116 1.26464,-1.26464c0.73901,-0.34348 1.57689,-0.51522 2.51366,-0.51522c1.06167,0 1.90476,0.18735 2.52927,0.56206c0.62451,0.37471 0.93677,0.8535 0.93677,1.43638z" data-paper-data="{&quot;elementType&quot;:&quot;letter&quot;,&quot;baseline&quot;:46.826171875,&quot;baselineProportion&quot;:0.9979188345473465,&quot;fontSize&quot;:100}"></path><path d="M78.99297,173.4192c0,-1.37393 0.08327,-2.96123 0.2498,-4.7619c0.16654,-1.80068 0.37471,-3.63258 0.62451,-5.49571c0.2498,-1.86313 0.53084,-3.6586 0.84309,-5.38642c0.31226,-1.72782 0.6141,-3.20583 0.90554,-4.43404c0.22899,-0.95759 0.67135,-1.75904 1.32709,-2.40437c0.65574,-0.64533 1.54567,-0.96799 2.66979,-0.96799c1.12412,0 1.90476,0.34348 2.34192,1.03044c0.43716,0.68696 0.65574,1.60291 0.65574,2.74785c0,0.31226 -0.03123,0.7338 -0.09368,1.26464c-0.06245,0.53084 -0.14052,1.11371 -0.23419,1.74863c-0.09368,0.63492 -0.19256,1.29066 -0.29664,1.96721c-0.10409,0.67655 -0.20297,1.30107 -0.29664,1.87354c-0.09368,0.57247 -0.17174,1.07208 -0.23419,1.49883c-0.06245,0.42675 -0.09368,0.71298 -0.09368,0.8587l0.62451,0c0.1249,-0.22899 0.32266,-0.59849 0.59329,-1.10851c0.27062,-0.51002 0.58288,-1.0981 0.93677,-1.76425c0.35389,-0.66615 0.7338,-1.36872 1.13973,-2.10773c0.40593,-0.73901 0.78584,-1.44679 1.13973,-2.12334c0.35389,-0.67655 0.67655,-1.27505 0.96799,-1.79547c0.29144,-0.52043 0.51002,-0.90554 0.65574,-1.15535c0.66615,-1.12412 1.42597,-1.89435 2.27947,-2.31069c0.8535,-0.41634 1.80068,-0.62451 2.84153,-0.62451c1.04085,0 1.86833,0.43716 2.48244,1.31148c0.6141,0.87432 0.92116,2.08171 0.92116,3.62217c0,0.22899 -0.04684,0.6141 -0.14052,1.15535c-0.09368,0.54124 -0.21337,1.18657 -0.35909,1.93599c-0.14572,0.74941 -0.30705,1.57169 -0.484,2.46682c-0.17695,0.89513 -0.33828,1.81109 -0.484,2.74785c-0.14572,0.93677 -0.26542,1.86313 -0.35909,2.77908c-0.09368,0.91595 -0.14052,1.75904 -0.14052,2.52927c0,1.29066 0.16133,2.35233 0.484,3.18501c0.32266,0.83268 0.82748,1.24902 1.51444,1.24902c0.31226,0 0.67135,-0.09368 1.07728,-0.28103c0.40593,-0.18735 0.84309,-0.43195 1.31148,-0.7338c0.46838,-0.30185 0.94718,-0.65053 1.43638,-1.04606c0.4892,-0.39552 0.9732,-0.80146 1.45199,-1.2178c1.1033,-0.9784 2.25865,-2.08171 3.46604,-3.30991l0.53084,6.99454l-1.56128,1.18657c-0.8535,0.64533 -1.72261,1.29066 -2.60734,1.93599c-0.88473,0.64533 -1.80588,1.223 -2.76347,1.73302c-0.95759,0.51002 -1.9568,0.92636 -2.99766,1.24902c-1.04085,0.32266 -2.13375,0.484 -3.27869,0.484c-1.14494,0 -2.10773,-0.82748 -2.88837,-2.48244c-0.78064,-1.65496 -1.17096,-4.07494 -1.17096,-7.25995c0,-1.24902 0.08327,-2.59693 0.2498,-4.04372c0.16654,-1.44679 0.37471,-3.00286 0.62451,-4.66823l-0.49961,0l-8.18111,16.23731c-0.41634,0.8535 -0.88473,1.43638 -1.40515,1.74863c-0.52043,0.31226 -1.12412,0.46838 -1.81109,0.46838c-0.8535,0 -1.54046,-0.18215 -2.06089,-0.54645c-0.52043,-0.3643 -0.92116,-0.8535 -1.20219,-1.4676c-0.28103,-0.6141 -0.46838,-1.31148 -0.56206,-2.09212c-0.09368,-0.78064 -0.14052,-1.5873 -0.14052,-2.41998z" data-paper-data="{&quot;elementType&quot;:&quot;letter&quot;,&quot;baseline&quot;:46.875,&quot;baselineProportion&quot;:1,&quot;fontSize&quot;:100}"></path><path d="M117.58782,179.94536c-1.91517,0 -3.59615,-0.35389 -5.04294,-1.06167c-1.44679,-0.70778 -2.65938,-1.65496 -3.63778,-2.84153c-0.9784,-1.18657 -1.71741,-2.5605 -2.21702,-4.12178c-0.49961,-1.56128 -0.74941,-3.18501 -0.74941,-4.87119c0,-1.20739 0.1249,-2.46682 0.37471,-3.7783c0.2498,-1.31148 0.61931,-2.59693 1.10851,-3.85636c0.4892,-1.25943 1.0929,-2.46162 1.81109,-3.60656c0.71819,-1.14494 1.55087,-2.14936 2.49805,-3.01327c0.94718,-0.86391 2.00364,-1.55087 3.1694,-2.06089c1.16576,-0.51002 2.44601,-0.76503 3.84075,-0.76503c1.18657,0 2.28467,0.18215 3.2943,0.54645c1.00963,0.3643 1.87354,0.86911 2.59173,1.51444c0.71819,0.64533 1.28025,1.41036 1.68618,2.29508c0.40593,0.88473 0.6089,1.83711 0.6089,2.85714c0,0.70778 -0.09368,1.40515 -0.28103,2.09212c-0.18735,0.68696 -0.46318,1.30627 -0.82748,1.85792c-0.3643,0.55165 -0.80666,0.99402 -1.32709,1.32709c-0.52043,0.33307 -1.1033,0.49961 -1.74863,0.49961c-0.9784,0 -1.61853,-0.26021 -1.92037,-0.78064c-0.30185,-0.52043 -0.45277,-1.23862 -0.45277,-2.15457c0,-0.37471 0.01561,-0.77023 0.04684,-1.18657c0.03123,-0.41634 0.04684,-0.79105 0.04684,-1.12412c0,-0.49961 -0.05204,-0.91595 -0.15613,-1.24902c-0.10409,-0.33307 -0.33307,-0.49961 -0.68696,-0.49961c-0.8535,0 -1.5821,0.20297 -2.18579,0.6089c-0.6037,0.40593 -1.11892,0.93677 -1.54567,1.59251c-0.42675,0.65574 -0.76503,1.39474 -1.01483,2.21702c-0.2498,0.82227 -0.44757,1.63934 -0.59329,2.45121c-0.14572,0.81187 -0.2394,1.5873 -0.28103,2.32631c-0.04163,0.73901 -0.06245,1.35831 -0.06245,1.85792c0,0.74941 0.06766,1.53005 0.20297,2.34192c0.13531,0.81187 0.39032,1.55608 0.76503,2.23263c0.37471,0.67655 0.88473,1.23862 1.53005,1.68618c0.64533,0.44757 1.47801,0.67135 2.49805,0.67135c0.99922,0 2.10252,-0.30705 3.30991,-0.92116c1.20739,-0.6141 2.41998,-1.38954 3.63778,-2.32631c1.2178,-0.93677 2.37835,-1.96721 3.48165,-3.09133c1.1033,-1.12412 2.05048,-2.18579 2.84153,-3.18501l2.15457,3.62217c-1.56128,2.22743 -3.24746,4.21546 -5.05855,5.96409c-0.77023,0.74941 -1.60812,1.47801 -2.51366,2.18579c-0.90554,0.70778 -1.85272,1.3375 -2.84153,1.88915c-0.98881,0.55165 -2.01926,0.99922 -3.09133,1.3427c-1.07208,0.34348 -2.15977,0.51522 -3.26308,0.51522z" data-paper-data="{&quot;elementType&quot;:&quot;letter&quot;,&quot;baseline&quot;:46.875,&quot;baselineProportion&quot;:1,&quot;fontSize&quot;:100}"></path><path d="M141.69399,160.52303c0.8535,-1.12412 1.81109,-2.33151 2.87276,-3.62217c1.06167,-1.29066 2.16498,-2.49284 3.30991,-3.60656c1.14494,-1.11371 2.28467,-2.04007 3.4192,-2.77908c1.13453,-0.73901 2.20141,-1.10851 3.20062,-1.10851c0.2498,0 0.53084,0.04684 0.84309,0.14052c0.31226,0.09368 0.6089,0.26542 0.88993,0.51522c0.28103,0.2498 0.51522,0.59849 0.70258,1.04606c0.18735,0.44757 0.28103,1.02524 0.28103,1.73302c0,1.41556 -0.19776,2.79469 -0.59329,4.13739c-0.39552,1.3427 -0.82748,2.6854 -1.29586,4.0281c-0.46838,1.3427 -0.89513,2.71142 -1.28025,4.10617c-0.38512,1.39474 -0.57767,2.85194 -0.57767,4.37158c0,0.83268 0.1249,1.49883 0.37471,1.99844c0.2498,0.49961 0.57247,0.74941 0.96799,0.74941c0.49961,0 1.03044,-0.10409 1.59251,-0.31226c0.56206,-0.20817 1.12412,-0.47879 1.68618,-0.81187c0.56206,-0.33307 1.11371,-0.71298 1.65496,-1.13973c0.54124,-0.42675 1.05126,-0.86911 1.53005,-1.32709c1.14494,-1.06167 2.26906,-2.26906 3.37237,-3.62217l0.53084,8.30601c-0.37471,0.29144 -0.8483,0.65574 -1.42077,1.0929c-0.57247,0.43716 -1.20739,0.90034 -1.90476,1.38954c-0.69737,0.4892 -1.45199,0.98361 -2.26386,1.48322c-0.81187,0.49961 -1.62894,0.94197 -2.45121,1.32709c-0.82227,0.38512 -1.64455,0.70258 -2.46682,0.95238c-0.82227,0.2498 -1.60812,0.37471 -2.35753,0.37471c-1.14494,0 -2.13895,-0.30705 -2.98205,-0.92116c-0.84309,-0.6141 -1.53526,-1.39474 -2.0765,-2.34192c-0.54124,-0.94718 -0.94718,-1.98283 -1.2178,-3.10695c-0.27062,-1.12412 -0.40593,-2.18579 -0.40593,-3.18501c0,-0.66615 0.08847,-1.41036 0.26542,-2.23263c0.17695,-0.82227 0.39552,-1.64975 0.65574,-2.48244c0.26021,-0.83268 0.55165,-1.64455 0.87432,-2.4356c0.32266,-0.79105 0.62451,-1.49883 0.90554,-2.12334c0.28103,-0.62451 0.52563,-1.13453 0.7338,-1.53005c0.20817,-0.39552 0.34348,-0.62451 0.40593,-0.68696l-0.65574,-0.09368c-0.35389,0.22899 -0.95238,0.81187 -1.79547,1.74863c-0.84309,0.93677 -1.79547,2.11814 -2.85714,3.54411c-1.06167,1.42597 -2.15977,3.02888 -3.2943,4.80874c-1.13453,1.77986 -2.15977,3.61697 -3.07572,5.51132c-0.45798,0.93677 -0.83268,1.75384 -1.12412,2.45121c-0.29144,0.69737 -0.57767,1.26984 -0.8587,1.71741c-0.28103,0.44757 -0.58808,0.78584 -0.92116,1.01483c-0.33307,0.22899 -0.75982,0.34348 -1.28025,0.34348c-0.68696,0 -1.22821,-0.19776 -1.62373,-0.59329c-0.39552,-0.39552 -0.69737,-0.92116 -0.90554,-1.57689c-0.20817,-0.65574 -0.34348,-1.39995 -0.40593,-2.23263c-0.06245,-0.83268 -0.09368,-1.68618 -0.09368,-2.5605c0,-1.39474 0.01561,-3.22144 0.04684,-5.48009c0.03123,-2.25865 0.13011,-4.7619 0.29664,-7.50976c0.16654,-2.74785 0.40593,-5.64143 0.71819,-8.68072c0.31226,-3.03929 0.75462,-6.04215 1.32709,-9.00859c0.57247,-2.96643 1.29066,-5.79755 2.15457,-8.49336c0.86391,-2.69581 1.91517,-5.06896 3.15379,-7.11944c1.23862,-2.05048 2.69061,-3.67942 4.35597,-4.88681c1.66537,-1.20739 3.58054,-1.81109 5.74551,-1.81109c1.12412,0 2.04528,0.16654 2.76347,0.49961c0.71819,0.33307 1.29066,0.80146 1.71741,1.40515c0.42675,0.6037 0.72339,1.32709 0.88993,2.17018c0.16654,0.84309 0.2498,1.78506 0.2498,2.82592c0,1.54046 -0.21858,3.24746 -0.65574,5.121c-0.43716,1.87354 -1.01483,3.81993 -1.73302,5.83919c-0.71819,2.01926 -1.53526,4.06453 -2.45121,6.13583c-0.91595,2.0713 -1.85272,4.08015 -2.8103,6.02654c-0.95759,1.9464 -1.89956,3.7835 -2.82592,5.51132c-0.92636,1.72782 -1.74343,3.24746 -2.45121,4.55894l0.62451,0.43716 M144.47307,141.2256c1.22821,-3.18501 2.11814,-5.87041 2.66979,-8.05621c0.55165,-2.18579 0.82748,-3.79912 0.82748,-4.83997c0,-1.5821 -0.20817,-2.37315 -0.62451,-2.37315c-0.54124,0 -1.3427,0.88473 -2.40437,2.65418c-1.06167,1.76945 -2.31069,4.34036 -3.74707,7.71272c-0.35389,1.14494 -0.68176,2.33151 -0.98361,3.55972c-0.30185,1.22821 -0.57247,2.45121 -0.81187,3.66901c-0.2394,1.2178 -0.45798,2.41478 -0.65574,3.59094c-0.19776,1.17616 -0.3695,2.29508 -0.51522,3.35675c-0.35389,2.47723 -0.62451,4.90242 -0.81187,7.27557c0.56206,-1.31148 1.17616,-2.73744 1.84231,-4.27791c0.66615,-1.54046 1.32188,-3.06531 1.96721,-4.57455c0.64533,-1.50924 1.25423,-2.93521 1.8267,-4.27791c0.57247,-1.3427 1.04606,-2.48244 1.42077,-3.4192z" data-paper-data="{&quot;elementType&quot;:&quot;letter&quot;,&quot;baseline&quot;:93.75,&quot;baselineProportion&quot;:1,&quot;fontSize&quot;:100}"></path><path d="M173.48165,179.94536c-1.9568,0 -3.66901,-0.35389 -5.13661,-1.06167c-1.4676,-0.70778 -2.69061,-1.66016 -3.66901,-2.85714c-0.9784,-1.19698 -1.7122,-2.58132 -2.20141,-4.15301c-0.4892,-1.57169 -0.7338,-3.22144 -0.7338,-4.94926c0,-1.16576 0.11449,-2.39917 0.34348,-3.70023c0.22899,-1.30107 0.57767,-2.57611 1.04606,-3.82514c0.46838,-1.24902 1.05647,-2.4408 1.76425,-3.57533c0.70778,-1.13453 1.53526,-2.13375 2.48244,-2.99766c0.94718,-0.86391 2.00885,-1.55087 3.18501,-2.06089c1.17616,-0.51002 2.48244,-0.76503 3.91881,-0.76503c1.16576,0 2.24824,0.18735 3.24746,0.56206c0.99922,0.37471 1.86833,0.90034 2.60734,1.57689c0.73901,0.67655 1.31668,1.49362 1.73302,2.45121c0.41634,0.95759 0.62451,2.02966 0.62451,3.21624c0,1.29066 -0.31746,2.58132 -0.95238,3.87198c-0.63492,1.29066 -1.51444,2.50846 -2.63856,3.6534c-1.12412,1.14494 -2.46162,2.16498 -4.01249,3.06011c-1.55087,0.89513 -3.23185,1.59251 -5.04294,2.09212c0.31226,0.56206 0.61931,1.03044 0.92116,1.40515c0.30185,0.37471 0.6089,0.66615 0.92116,0.87432c0.31226,0.20817 0.64012,0.35389 0.98361,0.43716c0.34348,0.08327 0.71298,0.1249 1.10851,0.1249c1.24902,0 2.5657,-0.2498 3.95004,-0.74941c1.38434,-0.49961 2.73224,-1.12412 4.04372,-1.87354c1.31148,-0.74941 2.55009,-1.56648 3.71585,-2.45121c1.16576,-0.88473 2.15457,-1.72261 2.96643,-2.51366l4.0281,4.18423c-1.8319,1.89435 -3.7783,3.57013 -5.83919,5.02732c-0.89513,0.62451 -1.85792,1.23862 -2.88837,1.84231c-1.03044,0.6037 -2.11293,1.13973 -3.24746,1.60812c-1.13453,0.46838 -2.31069,0.84309 -3.52849,1.12412c-1.2178,0.28103 -2.45121,0.42155 -3.70023,0.42155 M169.32865,165.26932c0.74941,0 1.56648,-0.19256 2.45121,-0.57767c0.88473,-0.38512 1.707,-0.87952 2.46682,-1.48322c0.75982,-0.6037 1.39995,-1.25943 1.92037,-1.96721c0.52043,-0.70778 0.78064,-1.39474 0.78064,-2.06089c0,-0.93677 -0.17174,-1.707 -0.51522,-2.31069c-0.34348,-0.6037 -0.76503,-0.90554 -1.26464,-0.90554c-0.89513,0 -1.66016,0.16654 -2.29508,0.49961c-0.63492,0.33307 -1.16576,0.76503 -1.59251,1.29586c-0.42675,0.53084 -0.77023,1.13453 -1.03044,1.81109c-0.26021,0.67655 -0.45798,1.35831 -0.59329,2.04528c-0.13531,0.68696 -0.22378,1.35311 -0.26542,1.99844c-0.04163,0.64533 -0.06245,1.19698 -0.06245,1.65496z" data-paper-data="{&quot;elementType&quot;:&quot;letter&quot;,&quot;baseline&quot;:46.826171875,&quot;baselineProportion&quot;:1,&quot;fontSize&quot;:100}"></path><path d="M222.72443,173.82514c-1.47801,1.14494 -2.93521,2.16498 -4.37158,3.06011c-0.6037,0.37471 -1.23862,0.74421 -1.90476,1.10851c-0.66615,0.3643 -1.32188,0.68696 -1.96721,0.96799c-0.64533,0.28103 -1.27505,0.51002 -1.88915,0.68696c-0.6141,0.17695 -1.18137,0.26542 -1.7018,0.26542c-0.29144,0 -0.72339,-0.06245 -1.29586,-0.18735c-0.57247,-0.1249 -1.19698,-0.37991 -1.87354,-0.76503c-0.67655,-0.38512 -1.35311,-0.94197 -2.02966,-1.67057c-0.67655,-0.7286 -1.26464,-1.69659 -1.76425,-2.90398c-0.77023,0.74941 -1.5873,1.4624 -2.45121,2.13895c-0.86391,0.67655 -1.75904,1.26464 -2.6854,1.76425c-0.92636,0.49961 -1.86313,0.90034 -2.8103,1.20219c-0.94718,0.30185 -1.89956,0.45277 -2.85714,0.45277c-1.35311,0 -2.52407,-0.29144 -3.51288,-0.87432c-0.98881,-0.58288 -1.81109,-1.35831 -2.46682,-2.32631c-0.65574,-0.96799 -1.14494,-2.06609 -1.4676,-3.2943c-0.32266,-1.22821 -0.484,-2.49805 -0.484,-3.80952c0,-1.33229 0.17174,-2.6802 0.51522,-4.04372c0.34348,-1.36352 0.84309,-2.6854 1.49883,-3.96565c0.65574,-1.28025 1.45199,-2.48764 2.38876,-3.62217c0.93677,-1.13453 1.99844,-2.14416 3.18501,-3.02888c1.18657,-0.88473 2.47723,-1.61853 3.87198,-2.20141c1.39474,-0.58288 2.88316,-0.94718 4.46526,-1.0929c0.06245,-2.66458 0.30185,-5.29794 0.71819,-7.90008c0.41634,-2.60213 0.96799,-5.07937 1.65496,-7.43169c0.68696,-2.35233 1.49362,-4.52771 2.41998,-6.52615c0.92636,-1.99844 1.94119,-3.72626 3.0445,-5.18345c1.1033,-1.45719 2.27947,-2.59693 3.52849,-3.4192c1.24902,-0.82227 2.53968,-1.23341 3.87198,-1.23341c0.9784,0 1.81109,0.25501 2.49805,0.76503c0.68696,0.51002 1.24382,1.18657 1.67057,2.02966c0.42675,0.84309 0.7338,1.82149 0.92116,2.93521c0.18735,1.11371 0.28103,2.26386 0.28103,3.45043c0,0.7286 -0.03123,1.47801 -0.09368,2.24824c-0.27062,2.93521 -0.77023,5.70908 -1.49883,8.32162c-0.7286,2.61254 -1.5821,5.15743 -2.5605,7.63466c-0.9784,2.47723 -2.04007,4.93365 -3.18501,7.36924c-1.14494,2.4356 -2.25865,4.96487 -3.34114,7.58782c-0.10409,0.29144 -0.20817,0.64533 -0.31226,1.06167c-0.10409,0.41634 -0.20297,0.86911 -0.29664,1.35831c-0.09368,0.4892 -0.17174,0.98881 -0.23419,1.49883c-0.06245,0.51002 -0.09368,1.00442 -0.09368,1.48322c0,0.6037 0.03643,1.17616 0.10929,1.71741c0.07286,0.54124 0.19256,1.02524 0.35909,1.45199c0.16654,0.42675 0.39032,0.76503 0.67135,1.01483c0.28103,0.2498 0.62972,0.37471 1.04606,0.37471c0.39552,0 0.82748,-0.07806 1.29586,-0.23419c0.46838,-0.15613 0.96279,-0.3695 1.48322,-0.64012c0.52043,-0.27062 1.04606,-0.57767 1.57689,-0.92116c0.53084,-0.34348 1.04606,-0.69217 1.54567,-1.04606c1.14494,-0.83268 2.34192,-1.77986 3.59094,-2.84153l0.93677,7.21311 M201.24122,156.3388c-1.37393,0.66615 -2.59693,1.54567 -3.66901,2.63856c-1.07208,1.0929 -1.96721,2.27426 -2.6854,3.54411c-0.71819,1.26984 -1.26464,2.55009 -1.63934,3.84075c-0.37471,1.29066 -0.56206,2.45641 -0.56206,3.49727c0,0.41634 0.04684,0.83268 0.14052,1.24902c0.09368,0.41634 0.26542,0.79105 0.51522,1.12412c0.2498,0.33307 0.6037,0.6037 1.06167,0.81187c0.45798,0.20817 1.05126,0.31226 1.77986,0.31226c0.37471,0 0.74421,-0.09368 1.10851,-0.28103c0.3643,-0.18735 0.71298,-0.43195 1.04606,-0.7338c0.33307,-0.30185 0.65053,-0.64533 0.95238,-1.03044c0.30185,-0.38512 0.57767,-0.78584 0.82748,-1.20219c0.58288,-0.95759 1.11371,-2.04007 1.59251,-3.24746c-0.06245,-0.29144 -0.11449,-0.75462 -0.15613,-1.38954c-0.04163,-0.63492 -0.07286,-1.3427 -0.09368,-2.12334c-0.02082,-0.78064 -0.04163,-1.5873 -0.06245,-2.41998c-0.02082,-0.83268 -0.03643,-1.59251 -0.04684,-2.27947c-0.01041,-0.68696 -0.02602,-1.24902 -0.04684,-1.68618c-0.02082,-0.43716 -0.04163,-0.64533 -0.06245,-0.62451 M215.91725,133.70023c0.1249,-1.45719 0.18735,-2.61254 0.18735,-3.46604c0,-1.12412 -0.09888,-1.90476 -0.29664,-2.34192c-0.19776,-0.43716 -0.484,-0.65574 -0.8587,-0.65574c-0.66615,0 -1.26984,0.42155 -1.81109,1.26464c-0.54124,0.84309 -1.02004,1.92037 -1.43638,3.23185c-0.41634,1.31148 -0.78064,2.75826 -1.0929,4.34036c-0.31226,1.5821 -0.57247,3.11215 -0.78064,4.59016c-0.20817,1.47801 -0.37471,2.8103 -0.49961,3.99688c-0.1249,1.18657 -0.20817,2.02966 -0.2498,2.52927c-0.08327,1.02004 -0.15092,2.00364 -0.20297,2.95082c-0.05204,0.94718 -0.08847,1.81109 -0.10929,2.59173c-0.02082,0.78064 -0.03123,1.4624 -0.03123,2.04528c0,0.58288 0,1.03044 0,1.3427l0,0.31226c1.18657,-2.70622 2.27947,-5.40203 3.27869,-8.08743c0.41634,-1.14494 0.83789,-2.34712 1.26464,-3.60656c0.42675,-1.25943 0.81707,-2.52407 1.17096,-3.79391c0.35389,-1.26984 0.66094,-2.51887 0.92116,-3.74707c0.26021,-1.22821 0.44236,-2.39396 0.54645,-3.49727z" data-paper-data="{&quot;elementType&quot;:&quot;letter&quot;,&quot;baseline&quot;:93.75,&quot;baselineProportion&quot;:1,&quot;fontSize&quot;:100}"></path><path d="M239.96097,173.2943c-0.74941,0.68696 -1.68098,1.42077 -2.79469,2.20141c-1.11371,0.78064 -2.3159,1.49883 -3.60656,2.15457c-1.29066,0.65574 -2.60734,1.20219 -3.95004,1.63934c-1.3427,0.43716 -2.61775,0.65574 -3.82514,0.65574c-1.08249,0 -1.99323,-0.15092 -2.73224,-0.45277c-0.73901,-0.30185 -1.3375,-0.72339 -1.79547,-1.26464c-0.45798,-0.54124 -0.78584,-1.20219 -0.98361,-1.98283c-0.19776,-0.78064 -0.29664,-1.63934 -0.29664,-2.57611c0,-1.31148 0.15092,-2.83633 0.45277,-4.57455c0.30185,-1.73823 0.67135,-3.5389 1.10851,-5.40203c0.43716,-1.86313 0.90034,-3.72105 1.38954,-5.57377c0.4892,-1.85272 0.92116,-3.55972 1.29586,-5.121c0.14572,-0.54124 0.43716,-1.00442 0.87432,-1.38954c0.43716,-0.38512 0.93156,-0.69737 1.48322,-0.93677c0.55165,-0.2394 1.12412,-0.41634 1.71741,-0.53084c0.59329,-0.11449 1.12933,-0.17174 1.60812,-0.17174c0.87432,0 1.4676,0.16133 1.77986,0.484c0.31226,0.32266 0.46838,0.75462 0.46838,1.29586c0,0.45798 -0.10409,1.11892 -0.31226,1.98283c-0.20817,0.86391 -0.46838,1.84231 -0.78064,2.93521c-0.31226,1.0929 -0.64533,2.26906 -0.99922,3.52849c-0.35389,1.25943 -0.68696,2.51887 -0.99922,3.7783c-0.31226,1.25943 -0.57247,2.48764 -0.78064,3.68462c-0.20817,1.19698 -0.31226,2.27426 -0.31226,3.23185c0,0.93677 0.10409,1.68098 0.31226,2.23263c0.20817,0.55165 0.63492,0.82748 1.28025,0.82748c0.74941,0 1.5821,-0.26021 2.49805,-0.78064c0.91595,-0.52043 1.84231,-1.15014 2.77908,-1.88915c0.93677,-0.73901 1.85272,-1.50403 2.74785,-2.29508c0.89513,-0.79105 1.68618,-1.4676 2.37315,-2.02966l0,6.3388 M226.00312,141.19438c0,-0.47879 0.10409,-1.02004 0.31226,-1.62373c0.20817,-0.6037 0.54645,-1.17096 1.01483,-1.7018c0.46838,-0.53084 1.0929,-0.9784 1.87354,-1.3427c0.78064,-0.3643 1.75384,-0.54645 2.91959,-0.54645c0.7286,0 1.41556,0.08327 2.06089,0.2498c0.64533,0.16654 1.20739,0.42155 1.68618,0.76503c0.47879,0.34348 0.8587,0.79625 1.13973,1.35831c0.28103,0.56206 0.42155,1.22821 0.42155,1.99844c0,0.70778 -0.11449,1.39474 -0.34348,2.06089c-0.22899,0.66615 -0.59329,1.25943 -1.0929,1.77986c-0.49961,0.52043 -1.12933,0.94197 -1.88915,1.26464c-0.75982,0.32266 -1.67057,0.484 -2.73224,0.484c-1.8319,0 -3.18501,-0.43195 -4.05933,-1.29586c-0.87432,-0.86391 -1.31148,-2.01405 -1.31148,-3.45043z" data-paper-data="{&quot;elementType&quot;:&quot;letter&quot;,&quot;baseline&quot;:68.75,&quot;baselineProportion&quot;:1,&quot;fontSize&quot;:100}"></path><path d="M237.74395,173.4192c0,-1.37393 0.08327,-2.96123 0.2498,-4.7619c0.16654,-1.80068 0.37471,-3.63258 0.62451,-5.49571c0.2498,-1.86313 0.53084,-3.6586 0.84309,-5.38642c0.31226,-1.72782 0.6141,-3.20583 0.90554,-4.43404c0.22899,-0.95759 0.67135,-1.75904 1.32709,-2.40437c0.65574,-0.64533 1.54567,-0.96799 2.66979,-0.96799c1.12412,0 1.90476,0.34348 2.34192,1.03044c0.43716,0.68696 0.65574,1.60291 0.65574,2.74785c0,0.31226 -0.03123,0.7338 -0.09368,1.26464c-0.06245,0.53084 -0.14052,1.11371 -0.23419,1.74863c-0.09368,0.63492 -0.19256,1.29066 -0.29664,1.96721c-0.10409,0.67655 -0.20297,1.30107 -0.29664,1.87354c-0.09368,0.57247 -0.17174,1.07208 -0.23419,1.49883c-0.06245,0.42675 -0.09368,0.71298 -0.09368,0.8587l0.62451,0c0.1249,-0.22899 0.32266,-0.59849 0.59329,-1.10851c0.27062,-0.51002 0.58288,-1.0981 0.93677,-1.76425c0.35389,-0.66615 0.7338,-1.36872 1.13973,-2.10773c0.40593,-0.73901 0.78584,-1.44679 1.13973,-2.12334c0.35389,-0.67655 0.67655,-1.27505 0.96799,-1.79547c0.29144,-0.52043 0.51002,-0.90554 0.65574,-1.15535c0.66615,-1.12412 1.42597,-1.89435 2.27947,-2.31069c0.8535,-0.41634 1.80068,-0.62451 2.84153,-0.62451c1.04085,0 1.86833,0.43716 2.48244,1.31148c0.6141,0.87432 0.92116,2.08171 0.92116,3.62217c0,0.22899 -0.04684,0.6141 -0.14052,1.15535c-0.09368,0.54124 -0.21337,1.18657 -0.35909,1.93599c-0.14572,0.74941 -0.30705,1.57169 -0.484,2.46682c-0.17695,0.89513 -0.33828,1.81109 -0.484,2.74785c-0.14572,0.93677 -0.26542,1.86313 -0.35909,2.77908c-0.09368,0.91595 -0.14052,1.75904 -0.14052,2.52927c0,1.29066 0.16133,2.35233 0.484,3.18501c0.32266,0.83268 0.82748,1.24902 1.51444,1.24902c0.31226,0 0.67135,-0.09368 1.07728,-0.28103c0.40593,-0.18735 0.84309,-0.43195 1.31148,-0.7338c0.46838,-0.30185 0.94718,-0.65053 1.43638,-1.04606c0.4892,-0.39552 0.9732,-0.80146 1.45199,-1.2178c1.1033,-0.9784 2.25865,-2.08171 3.46604,-3.30991l0.53084,6.99454l-1.56128,1.18657c-0.8535,0.64533 -1.72261,1.29066 -2.60734,1.93599c-0.88473,0.64533 -1.80588,1.223 -2.76347,1.73302c-0.95759,0.51002 -1.9568,0.92636 -2.99766,1.24902c-1.04085,0.32266 -2.13375,0.484 -3.27869,0.484c-1.14494,0 -2.10773,-0.82748 -2.88837,-2.48244c-0.78064,-1.65496 -1.17096,-4.07494 -1.17096,-7.25995c0,-1.24902 0.08327,-2.59693 0.2498,-4.04372c0.16654,-1.44679 0.37471,-3.00286 0.62451,-4.66823l-0.49961,0l-8.18111,16.23731c-0.41634,0.8535 -0.88473,1.43638 -1.40515,1.74863c-0.52043,0.31226 -1.12412,0.46838 -1.81109,0.46838c-0.8535,0 -1.54046,-0.18215 -2.06089,-0.54645c-0.52043,-0.3643 -0.92116,-0.8535 -1.20219,-1.4676c-0.28103,-0.6141 -0.46838,-1.31148 -0.56206,-2.09212c-0.09368,-0.78064 -0.14052,-1.5873 -0.14052,-2.41998z" data-paper-data="{&quot;elementType&quot;:&quot;letter&quot;,&quot;baseline&quot;:46.875,&quot;baselineProportion&quot;:1,&quot;fontSize&quot;:100}"></path></g></g></g></g></g></svg>